<?xml version="1.0" encoding="UTF-8" standalone="no"?>
<svg
   xmlns:dc="http://purl.org/dc/elements/1.1/"
   xmlns:cc="http://creativecommons.org/ns#"
   xmlns:rdf="http://www.w3.org/1999/02/22-rdf-syntax-ns#"
   xmlns:svg="http://www.w3.org/2000/svg"
   xmlns="http://www.w3.org/2000/svg"
   version="1.1"
   id="svg2"
   viewBox="0 0 415.87047 199.99999"
   height="56.444443mm"
   width="117.36789mm">
  <defs
     id="defs4" />
  <metadata
     id="metadata7">
    <rdf:RDF>
      <cc:Work
         rdf:about="">
        <dc:format>image/svg+xml</dc:format>
        <dc:type
           rdf:resource="http://purl.org/dc/dcmitype/StillImage" />
        <dc:title></dc:title>
      </cc:Work>
    </rdf:RDF>
  </metadata>
  <g
     transform="translate(0,49.066606)"
     id="layer1">
    <path
       id="path3347"
       d="m 189.7412,150.89937 c -0.78884,-0.0397 -3.76767,-0.17778 -6.61963,-0.30752 -42.10201,-1.91572 -84.456045,-9.87311 -115.622909,-21.72291 -9.414728,-3.57961 -20.373103,-8.58648 -27.030166,-12.35018 -3.27775,-1.85313 -8.674575,-5.17849 -8.84075,-5.44737 -0.193411,-0.31293 5.657513,-9.03849 5.945188,-8.86615 0.136239,0.0816 1.290298,0.79156 2.564578,1.57765 5.444268,3.35851 11.06438,6.36373 16.549084,8.84926 1.999665,0.90616 2.818146,1.41859 3.861452,2.41742 2.711482,2.59585 5.665773,4.4153 10.459012,6.4412 10.770431,4.55225 26.456326,8.12986 46.800811,10.6743 2.48788,0.31112 6.16177,0.85916 8.16421,1.21779 33.46332,5.99357 70.4581,8.2132 106.6864,6.40126 70.511,-3.52672 131.87747,-22.13061 158.58574,-48.07694 6.55617,-6.369145 10.6361,-12.491077 12.51943,-18.78542 1.72064,-5.750681 1.74515,-10.484866 0.0839,-16.207663 -1.90676,-6.568565 -5.87556,-12.590975 -12.6072,-19.130642 C 376.27589,23.045727 350.58384,10.738272 316.50716,1.7834609 277.45535,-8.4787492 229.1691,-12.895839 182.4596,-10.478834 c -9.40574,0.4867044 -21.45155,1.4808776 -29.42177,2.4282646 -2.16491,0.2573272 -3.96042,0.4353144 -3.99002,0.3955157 -0.15794,-0.2123284 -4.03897,-10.2334073 -3.98602,-10.2921893 0.11761,-0.130584 11.01031,-1.340689 17.09762,-1.89943 27.18933,-2.495653 54.02724,-2.748486 81.9731,-0.772254 55.66363,3.936335 105.80624,17.4421797 137.02639,36.907878 13.34746,8.322114 22.94389,17.435979 28.61436,27.175452 6.25081,10.73622 7.69777,21.649169 4.33001,32.656846 -3.16385,10.341189 -10.70576,20.292181 -22.35295,29.493121 -4.41673,3.48909 -10.64089,7.60274 -16.22102,10.72073 -31.55296,17.63081 -78.18679,29.62815 -130.16178,33.4863 -12.58437,0.9341 -15.78542,1.03369 -35.10546,1.09194 -10.49763,0.0316 -19.73202,0.025 -20.52086,-0.014 z M 170.43395,134.24842 C 114.9398,132.49598 73.434257,124.6462 62.842823,113.90018 c -2.512444,-2.54916 -3.34604,-4.38547 -3.37688,-7.43895 -0.01795,-1.77505 0.06156,-2.28215 0.51878,-3.30982 1.480202,-3.326913 4.429461,-5.974413 9.571562,-8.592212 1.598899,-0.813987 3.751103,-1.805836 4.782665,-2.20411 11.653973,-4.499489 30.08679,-8.337155 50.86084,-10.58911 2.30584,-0.249964 4.66408,-0.508638 5.24054,-0.574841 l 1.04811,-0.12036 0.007,1.71767 c 0.007,1.60148 0.1757,3.292884 0.55037,5.509115 0.18447,1.091195 0.79045,0.918187 -5.63265,1.608122 -29.138294,3.129895 -52.267135,9.209181 -57.884535,15.214626 -0.566604,0.60575 -1.030192,1.26489 -1.030192,1.46476 0,0.67572 2.499198,2.82404 4.692753,4.03391 9.008851,4.96891 28.304304,9.46151 52.677394,12.265 61.33639,7.05513 141.47737,2.73773 174.52403,-9.40201 2.36733,-0.86967 3.18883,-1.0781 3.93257,-0.99773 1.81713,0.19646 3.27985,1.70787 3.50673,3.62359 0.28958,2.44514 -0.6989,3.5988 -4.22737,4.93376 -18.99185,7.18524 -54.09217,12.00338 -96.31448,13.22088 -8.5594,0.24683 -27.83488,0.23926 -35.85634,-0.014 z M 15.61951,125.36369 c -2.461194,-0.91027 -3.65094,-3.18514 -2.763659,-5.28415 0.165078,-0.39049 6.933447,-10.68912 15.040827,-22.885795 C 36.00405,84.997072 46.923939,68.563835 52.163083,60.67544 66.486571,39.109097 82.388401,15.178942 97.837439,-8.0583952 105.46212,-19.526908 114.50071,-33.130253 117.92319,-38.28805 c 3.42248,-5.157797 6.45981,-9.587471 6.74964,-9.843717 1.14625,-1.013451 2.83984,-1.223286 4.27314,-0.529431 1.97021,0.953757 1.44478,-0.263034 13.24512,30.673354 6.04101,15.8374707 12.44641,32.618231 14.23418,37.290589 1.78779,4.672357 3.93346,10.305164 4.76815,12.517357 0.83469,2.212193 1.56727,4.023515 1.62795,4.025155 0.0607,0.0015 1.29012,-3.09915 2.7321,-6.890669 6.1361,-16.134163 7.46858,-19.4956119 8.00878,-20.2038684 1.31015,-1.7176843 4.25817,-1.8198546 5.9749,-0.2070694 1.11324,1.0458283 1.95775,2.9788788 6.46122,14.7895528 2.58058,6.767758 4.71121,12.278595 4.73472,12.24632 0.0235,-0.03229 1.34786,-3.484339 2.94297,-7.671256 8.33656,-21.8822322 9.49857,-24.8221286 9.78447,-24.7548364 0.16072,0.037805 1.89647,0.6783211 3.85721,1.4233092 l 3.56498,1.3545386 -0.39544,1.003882 c -1.98739,5.0451086 -15.67103,41.0776656 -15.67103,41.2658326 0,0.5786 -0.91221,1.922856 -1.62899,2.400536 -0.96761,0.644818 -2.37099,0.972858 -3.36457,0.786456 -0.44906,-0.08424 -1.15447,-0.51386 -1.73068,-1.054059 -0.94822,-0.888935 -1.09832,-1.241894 -5.97115,-14.040792 -2.74917,-7.220915 -5.07364,-13.263926 -5.1655,-13.428909 -0.13041,-0.234225 -0.20157,-0.210049 -0.32467,0.110327 -0.0867,0.225663 -2.29821,6.020438 -4.91445,12.877274 -4.31138,11.299602 -5.18896,13.471775 -5.66915,14.121882 -0.0246,0.03325 -2.02119,0.923498 -3.10796,0.860538 -1.61891,-0.108092 -3.4061,-1.442176 -4.12664,-2.642697 -0.90636,-1.880918 -0.007,0.40123 -11.10615,-28.66815 -16.30801,-42.711339 -21.1195,-55.279498 -21.23447,-55.466812 -0.0651,-0.106083 -7.39964,10.766663 -16.29897,24.161658 l -16.180571,24.35454 -1.831358,0.4744 c -4.899307,1.26913 -8.762716,4.02011 -10.493294,7.471829 -1.079905,2.153925 -1.473993,4.044647 -1.471191,7.058271 0.0022,2.07435 0.09934,3.124327 0.351841,3.792542 L 80.89749,32.293869 71.603796,46.264 C 66.492256,53.947576 52.705614,74.681479 40.966806,92.339348 25.95397,114.92211 19.409794,124.58868 18.902951,124.93048 c -0.935207,0.63063 -2.27266,0.80708 -3.283441,0.43321 z m 162.64749,-8.5703 -3.19933,-0.0746 c -6.37282,-0.1486 -11.73282,-1.09834 -17.18935,-3.09019 -15.03808,-5.48943 -24.62466,-17.299541 -24.62466,-30.336113 0,-21.407751 25.23175,-37.299709 51.86234,-32.664958 5.70784,0.993386 11.68933,3.033115 13.05493,4.451827 1.31974,1.371059 1.41744,3.44991 0.24141,5.136173 -1.25789,1.803629 -2.99509,2.105588 -5.75524,1.000374 -10.152,-4.065065 -22.60778,-4.188727 -32.59393,-0.323597 -9.22405,3.570159 -15.60417,9.718238 -17.9111,17.259691 -0.52455,1.714779 -0.59351,2.30105 -0.59167,5.030163 0.002,3.497784 0.40699,5.439293 1.70157,8.164213 4.20754,8.856307 14.75822,15.428897 27.06163,16.858147 2.7638,0.32106 7.9434,0.0964 7.9434,0.0964 0,0 0.003,-10.315688 0,-14.85837 l 1.6e-4,-6.619632 -6.17832,0 -6.17832,0 0,-3.199489 0,-3.199489 9.3778,0 9.37781,0 0,22.17577 0,22.1758 -3.19949,0 -3.19948,0 z M 18.702847,101.19979 C 15.248539,98.139646 10.941041,93.352328 8.4472555,89.801822 4.2590343,83.838872 1.5344164,77.537556 0.39300563,71.174471 -0.0102256,68.926554 -0.05239119,68.021488 0.04265276,63.654274 0.15908621,58.304258 0.32742934,57.214519 1.7397206,52.668656 5.2991425,41.211639 14.94344,29.644979 29.10479,19.848989 42.021233,10.914155 57.833336,3.4227467 77.538439,-3.0977751 c 6.435489,-2.1295358 16.303125,-5.04352 16.664115,-4.9210274 0.114645,0.038909 -1.850224,3.143862 -4.366383,6.899915 L 85.261343,5.710293 78.972692,7.8383504 C 69.018418,11.206831 62.058566,14.027317 53.6693,18.092573 40.805295,24.326185 31.452501,30.64333 23.788541,38.274891 17.143798,44.891537 13.643528,50.342061 11.711912,57.080295 8.4455609,68.474588 12.564984,80.03557 23.860953,91.176036 l 2.735798,2.69814 -2.957615,4.473128 c -1.626694,2.460226 -2.973804,4.488556 -2.993582,4.507396 -0.01979,0.0188 -0.893996,-0.72586 -1.942707,-1.65491 z M 97.287009,61.410373 C 94.929633,61.234431 92.43003,60.694512 89.210513,59.665835 83.595086,57.871636 80.238256,55.314898 78.24443,51.313507 77.354457,48.87963 77.319263,48.597942 77.322197,46.900419 c 0.0044,-2.463041 0.03207,-2.611968 0.787774,-4.208307 0.952167,-2.011353 2.752965,-4.022191 4.851381,-5.417213 l 1.519375,-1.010082 -0.569737,-0.592641 c -0.313359,-0.325958 -1.081001,-1.632931 -1.70588,-2.904393 -1.185134,-2.816911 -1.411033,-5.987877 -0.613036,-8.602867 1.772936,-5.713522 4.888179,-8.672785 10.730056,-10.1928 1.710086,-0.444957 2.476206,-0.513381 5.51636,-0.492706 3.05487,0.02082 3.82771,0.102075 5.73702,0.603468 4.5904,1.205471 8.12619,3.673175 9.37612,6.543793 l 0.52843,1.213599 3.21193,0.02346 c 2.69951,0.01979 3.55362,0.114145 5.35357,0.591619 4.89592,1.298742 9.29318,4.191845 11.64162,7.659422 0.98721,1.45765 1.16749,2.093496 0.88433,3.118987 -0.33252,1.204332 -1.10995,1.792177 -2.52536,1.909551 -1.18779,0.0985 -1.22658,0.08299 -2.04276,-0.816628 -3.08007,-3.394959 -3.93977,-4.14503 -5.79731,-5.058098 -4.46076,-2.192679 -9.56563,-2.45606 -13.06437,-0.674055 -1.6133,0.821703 -3.16388,0.365095 -3.9424,-1.160929 -0.56311,-1.103794 -0.44168,-2.072621 0.36951,-2.947906 0.69934,-0.754601 0.5916,-1.338938 -0.46187,-2.505009 -2.24181,-2.481405 -9.210736,-3.757906 -13.642536,-2.498903 -0.949425,0.26972 -2.120254,0.691413 -2.601847,0.937104 -2.043274,1.042401 -3.317524,2.365474 -4.123656,6.457297 -0.194955,1.301229 0.172685,2.337289 0.572893,3.547307 0.429121,1.297433 1.166894,1.954652 1.692059,2.309582 0.73725,0.498252 0.810839,0.50674 1.612351,0.186041 1.518485,-0.607572 2.724876,-0.667921 3.514355,-0.175795 0.994335,0.619818 1.402848,1.347941 1.42684,2.543152 0.02626,1.30673 -0.710647,2.155176 -2.333104,2.686343 -2.295615,0.751556 -6.841758,3.465819 -8.588583,5.127802 -2.375073,2.259715 -2.403339,5.27253 -0.07238,7.714468 1.680879,1.760903 4.492877,3.100261 8.961195,4.268236 5.836802,1.525686 12.996223,0.811648 16.899883,-1.68549 1.67861,-1.0738 2.34083,-2.21184 3.28237,-5.64092 0.40326,-1.468705 1.10589,-2.191753 2.28331,-2.349683 1.5129,-0.202921 2.31894,0.366331 3.45147,2.437533 1.59761,2.921729 3.44917,4.373444 5.60391,4.393744 3.41063,0.03214 7.27095,-2.690322 10.20063,-7.193856 1.40888,-2.16576 2.53715,-3.062345 3.60622,-2.865727 1.10938,0.204031 1.74505,0.576504 2.24077,1.312982 0.83447,1.239747 0.46624,2.464746 -1.60873,5.351693 -2.29967,3.199592 -5.53855,6.185039 -8.12199,7.486473 -2.93576,1.478922 -6.81742,1.925306 -9.34307,1.074418 -1.27842,-0.430695 -3.2977,-1.622406 -4.23151,-2.497286 l -0.57156,-0.535506 -0.63648,0.918437 c -2.88412,4.161771 -11.00716,6.73861 -19.292889,6.120204 z m 8.085421,-61.58037297 c 0.45168,-0.74200931 8.0962,-12.21628903 8.24871,-12.38118403 0.21299,-0.230282 2.604,-0.730543 9.59276,-2.007043 7.18567,-1.312467 7.92236,-1.427222 8.07996,-1.25865 0.22127,0.23666 4.00006,9.9842155 3.90673,10.0775523 -0.0469,0.046926 -1.62121,0.3408816 -3.49847,0.6532842 -7.55608,1.2574433 -15.98929,2.9151242 -22.56865,4.43623486 -3.62623,0.83836173 -4.00904,0.88719255 -3.76104,0.47980567 z"
       style="fill:#000000" />
    <g
       id="flowRoot3349"
       style="font-style:normal;font-variant:normal;font-weight:bold;font-stretch:normal;font-size:40px;line-height:125%;font-family:'Futura Md BT';-inkscape-font-specification:'Futura Md BT Bold';letter-spacing:0px;word-spacing:0px;fill:#000000;fill-opacity:1;stroke:none;stroke-width:1px;stroke-linecap:butt;stroke-linejoin:miter;stroke-opacity:1"
       transform="matrix(0.83492173,0,0,0.83492173,32.688604,-245.59598)">
      <path
         id="path4207"
         d="m 218.08789,345.78063 q 0,-2.1875 -1.11328,-3.45703 -1.11328,-1.28906 -3.00781,-1.28906 -1.89453,0 -3.00782,1.26953 -1.11328,1.26953 -1.11328,3.47656 0,2.20703 1.09375,3.47656 1.09375,1.25 3.02735,1.25 1.89453,0 3.00781,-1.25 1.11328,-1.26953 1.11328,-3.47656 z m 6.91406,0 q 0,2.12891 -0.82031,4.02344 -0.82031,1.89453 -2.40234,3.4375 -1.58203,1.52344 -3.61328,2.32422 -1.01563,0.39062 -2.03125,0.58593 -0.9961,0.19532 -2.16797,0.19532 -2.26563,0 -4.25782,-0.76172 -1.97265,-0.78125 -3.53515,-2.32422 -0.76172,-0.72266 -1.36719,-1.5625 -0.58594,-0.85938 -1.01562,-1.83594 -0.82032,-1.93359 -0.82032,-4.08203 0,-2.1875 0.80078,-4.0625 0.80079,-1.89453 2.40235,-3.45703 1.48437,-1.46484 3.49609,-2.24609 2.01172,-0.78125 4.29688,-0.78125 2.26562,0 4.23828,0.76171 1.99219,0.76172 3.55469,2.26563 1.5625,1.50391 2.40234,3.4375 0.83984,1.93359 0.83984,4.08203 z" />
      <path
         id="path4209"
         d="m 229.20117,355.58532 0,-30.27344 6.97266,0 0,30.27344 -6.97266,0 z" />
      <path
         id="path4211"
         d="m 241.54492,355.58532 0,-30.27344 6.83594,0 0,19.16016 7.16797,-8.61328 8.63281,0 -8.86719,9.49218 9.66797,10.23438 -9.16015,0 -7.44141,-8.76953 0,8.76953 -6.83594,0 z" />
      <path
         id="path4213"
         d="m 279.31836,343.18297 q -0.17578,-1.67968 -1.26953,-2.69531 -1.09375,-1.01562 -2.67578,-1.01562 -1.67969,0 -2.69532,0.91797 -0.99609,0.91796 -1.34765,2.79296 l 7.98828,0 z m 6.85547,3.92579 -15,0 q 0,2.26562 1.15234,3.51562 1.17188,1.25 3.28125,1.25 1.5625,0 2.63672,-0.58594 1.09375,-0.58593 1.67969,-1.77734 l 5.23437,2.10937 q -0.9375,2.2461 -3.32031,3.4961 -2.38281,1.23047 -5.83984,1.23047 -5.17578,0 -8.28125,-2.85157 -3.10547,-2.87109 -3.10547,-7.55859 0,-4.57031 3.10547,-7.63672 3.10547,-3.0664 7.89062,-3.0664 4.90235,0 7.73438,3.10546 2.83203,3.08594 2.83203,8.4375 l 0,0.33204 z" />
      <path
         id="path4215"
         d="m 290.17773,355.58532 0,-19.72656 6.36719,0 0,4.0039 q 1.38672,-2.42187 3.20313,-3.51562 1.8164,-1.11328 4.35547,-1.11328 1.95312,0 3.39843,0.60546 1.46485,0.58594 2.44141,1.77735 0.76172,0.99609 1.09375,2.4414 0.35156,1.42579 0.35156,4.23829 l 0,11.28906 -6.97265,0 0,-10.56641 q 0,-2.34375 -0.78125,-3.41797 -0.78125,-1.09375 -2.46094,-1.09375 -2.16797,0 -3.16406,1.60157 -0.9961,1.58203 -0.9961,5.19531 l 0,8.28125 -6.83594,0 z" />
      <path
         id="path4217"
         d="m 322.48242,345.74157 q 0,2.30469 1.19141,3.63281 1.21094,1.32813 3.32031,1.32813 2.10938,0 3.32031,-1.3086 1.23047,-1.32812 1.23047,-3.65234 0,-2.28516 -1.23047,-3.61328 -1.21093,-1.34766 -3.32031,-1.34766 -2.10937,0 -3.32031,1.34766 -1.19141,1.32812 -1.19141,3.61328 z m -6.17187,-20.42969 6.64062,0 0,10.3125 -0.0586,2.08984 q 0,0.35157 -0.0391,0.72266 -0.0195,0.35156 -0.0977,0.70313 1.19141,-2.10938 2.79297,-3.00782 1.60156,-0.89843 4.08203,-0.89843 3.94531,0 6.38672,2.89062 2.46094,2.89063 2.46094,7.61719 0,4.88281 -2.48047,7.7539 -2.46094,2.85157 -6.60157,2.85157 -2.05078,0 -3.6914,-0.97657 -1.64063,-0.99609 -2.98828,-2.98828 l 0,3.20313 -6.40625,0 0,-30.27344 z" />
      <path
         id="path4219"
         d="m 356.27148,343.18297 q -0.17578,-1.67968 -1.26953,-2.69531 -1.09375,-1.01562 -2.67578,-1.01562 -1.67969,0 -2.69531,0.91797 -0.99609,0.91796 -1.34766,2.79296 l 7.98828,0 z m 6.85547,3.92579 -15,0 q 0,2.26562 1.15235,3.51562 1.17187,1.25 3.28125,1.25 1.5625,0 2.63672,-0.58594 1.09375,-0.58593 1.67968,-1.77734 l 5.23438,2.10937 q -0.9375,2.2461 -3.32031,3.4961 -2.38282,1.23047 -5.83985,1.23047 -5.17578,0 -8.28125,-2.85157 -3.10547,-2.87109 -3.10547,-7.55859 0,-4.57031 3.10547,-7.63672 3.10547,-3.0664 7.89063,-3.0664 4.90234,0 7.73437,3.10546 2.83203,3.08594 2.83203,8.4375 l 0,0.33204 z" />
      <path
         id="path4221"
         d="m 367.16992,355.58532 0,-19.72656 6.5625,0 0,4.64843 q 0.9961,-2.53906 2.77344,-3.80859 1.77734,-1.26953 4.25781,-1.26953 0.19531,0 0.3711,0 0.19531,0 0.44921,0.0391 0.25391,0 0.50782,0 0.23437,0.0586 0.35156,0.0781 l -0.66406,6.32812 q -0.27344,-0.0977 -0.58594,-0.17578 -0.29297,-0.0781 -0.76172,-0.13672 -0.44922,-0.0781 -0.68359,-0.0781 -0.23438,-0.0195 -0.3711,-0.0195 -2.53906,0 -3.92578,1.5625 -1.36719,1.54297 -1.36719,4.39454 l 0,8.16406 -6.91406,0 z" />
      <path
         id="path4223"
         d="m 400.06055,345.66344 q 0,-2.28515 -1.23047,-3.57422 -1.21094,-1.30859 -3.35938,-1.30859 -2.16797,0 -3.41797,1.30859 -1.23046,1.28907 -1.23046,3.57422 0,2.2461 1.23046,3.57422 1.25,1.3086 3.41797,1.3086 2.10938,0 3.33985,-1.28907 1.25,-1.30859 1.25,-3.59375 z m 6.11328,-9.80468 0,19.6875 q 0,4.45312 -2.73438,6.60156 -2.71484,2.14844 -8.41797,2.14844 -4.60937,0 -7.22656,-1.71875 -1.32812,-0.85938 -2.05078,-2.08985 -0.72266,-1.21094 -0.72266,-2.73437 l 7.20704,0 q 0.13671,0.89843 1.01562,1.42578 0.87891,0.52734 2.30469,0.52734 2.22656,0 3.08594,-1.09375 0.85937,-1.07422 0.85937,-4.55078 l 0,-1.79687 q -1.09375,1.85546 -2.8125,2.77343 -1.71875,0.89844 -4.02344,0.89844 -3.88672,0 -6.26953,-2.8125 -2.36328,-2.83203 -2.36328,-7.53906 0,-4.72656 2.46094,-7.53906 2.46094,-2.8125 6.66015,-2.8125 2.22657,0 3.8086,0.91796 1.58203,0.89844 2.79297,2.8711 l 0,-3.16406 6.42578,0 z" />
    </g>
    <g
       id="flowRoot3349-7"
       style="font-style:normal;font-variant:normal;font-weight:bold;font-stretch:normal;font-size:40px;line-height:125%;font-family:'Futura Md BT';-inkscape-font-specification:'Futura Md BT Bold';letter-spacing:0px;word-spacing:0px;fill:#000000;fill-opacity:1;stroke:none;stroke-width:1px;stroke-linecap:butt;stroke-linejoin:miter;stroke-opacity:1"
       transform="matrix(0.83492173,0,0,0.83492173,19.331451,-199.58443)">
      <path
         id="path4190"
         style="letter-spacing:2.31686831px;fill:#000000;fill-opacity:1"
         d="m 203.00977,364.29626 5.54687,-11.71875 -7.94922,-16.71875 7.71485,0 2.7539,7.1289 q 0.3711,0.91797 0.58594,1.69922 0.23437,0.76172 0.35156,1.40625 0.0586,-0.33203 0.13672,-0.70312 0.0781,-0.3711 0.19531,-0.74219 l 0.58594,-1.66016 2.79297,-7.1289 7.44141,0 -12.40235,28.4375 -7.7539,0 z" />
      <path
         id="path4192"
         style="letter-spacing:2.31686831px;fill:#000000;fill-opacity:1"
         d="m 253.84226,355.58532 0,-10.76172 q 0,-2.53906 -0.64453,-3.51563 -0.625,-0.99609 -2.1875,-0.99609 -1.9336,0 -2.71485,1.36719 -0.76172,1.34765 -0.76172,5.54687 l 0,8.35938 -6.71875,0 0,-10.76172 q 0,-2.59766 -0.625,-3.55469 -0.625,-0.95703 -2.1875,-0.95703 -1.91406,0 -2.71484,1.34766 -0.80078,1.34765 -0.80078,5.5664 l 0,8.35938 -6.75781,0 0,-19.72656 6.83593,0 0,3.4375 q 1.23047,-2.07032 2.83204,-3.06641 1.62109,-0.99609 3.80859,-0.99609 2.40234,0 3.90625,0.91796 1.52344,0.91797 2.22656,2.79297 1.13281,-1.83593 2.79297,-2.77343 1.67969,-0.9375 3.92578,-0.9375 1.77735,0 3.10547,0.60546 1.34766,0.58594 2.24609,1.77735 0.6836,0.91797 1.01563,2.1875 0.15625,0.64453 0.23437,1.62109 0.0781,0.95703 0.0781,2.44141 l 0,0.42969 0,11.28906 -6.89453,0 z" />
      <path
         id="path4194"
         style="letter-spacing:2.31686831px;fill:#000000;fill-opacity:1"
         d="m 268.0146,355.58532 0,-19.72656 6.36718,0 0,4.0039 q 1.38672,-2.42187 3.20313,-3.51562 1.8164,-1.11328 4.35547,-1.11328 1.95312,0 3.39843,0.60546 1.46485,0.58594 2.44141,1.77735 0.76172,0.99609 1.09375,2.4414 0.35156,1.42579 0.35156,4.23829 l 0,11.28906 -6.97265,0 0,-10.56641 q 0,-2.34375 -0.78125,-3.41797 -0.78125,-1.09375 -2.46094,-1.09375 -2.16797,0 -3.16406,1.60157 -0.9961,1.58203 -0.9961,5.19531 l 0,8.28125 -6.83593,0 z" />
      <path
         id="path4196"
         style="letter-spacing:2.31686831px;fill:#000000;fill-opacity:1"
         d="m 311.46428,345.70251 q 0,-2.26563 -1.23047,-3.63282 -1.23047,-1.36718 -3.35937,-1.36718 -2.08985,0 -3.33985,1.34765 -1.23047,1.32813 -1.23047,3.65235 0,2.28515 1.23047,3.63281 1.23047,1.32812 3.33985,1.32812 2.10937,0 3.33984,-1.32812 1.25,-1.32813 1.25,-3.63281 z m 6.11328,-9.84375 0,19.72656 -6.38672,0 0,-3.20313 q -1.34765,2.05078 -3.08594,3.00782 -1.73828,0.95703 -4.0039,0.95703 -3.90625,0 -6.28906,-2.8711 -2.38282,-2.89062 -2.38282,-7.73437 0,-4.78516 2.46094,-7.63672 2.46094,-2.87109 6.66016,-2.87109 2.22656,0 3.82812,0.95703 1.6211,0.9375 2.77344,2.91015 l 0,-3.24218 6.42578,0 z" />
      <path
         id="path4198"
         style="letter-spacing:2.31686831px;fill:#000000;fill-opacity:1"
         d="m 323.31239,353.94469 1.44532,-5.3125 q 1.52343,1.3086 3.33984,2.03125 1.81641,0.72266 3.69141,0.72266 1.28906,0 1.97265,-0.41016 0.70313,-0.41015 0.70313,-1.23047 0,-1.26953 -2.75391,-1.95312 l -1.44531,-0.37109 q -3.08594,-0.83985 -4.53125,-2.2461 -1.42578,-1.40625 -1.42578,-3.63281 0,-2.87109 2.16797,-4.58984 2.16796,-1.71875 5.83984,-1.71875 1.01562,0 1.89453,0.0976 0.87891,0.0977 1.95313,0.35156 1.93359,0.41016 4.02343,1.34766 l -1.44531,4.78516 q -1.34766,-0.91797 -2.8125,-1.40625 -1.46484,-0.50782 -2.85156,-0.50782 -1.17188,0 -1.79688,0.3711 -0.60547,0.37109 -0.60547,1.07422 0,1.05468 2.73438,1.77734 l 0.9375,0.25391 q 3.61328,1.01562 5.01953,2.42187 1.42578,1.40625 1.42578,3.78906 0,3.00782 -2.32422,4.88282 -2.32422,1.875 -6.15234,1.875 -2.59766,0 -4.82422,-0.60547 -1.17187,-0.3125 -2.16797,-0.72266 -0.97656,-0.41015 -2.01172,-1.07422 z" />
      <path
         id="path4200"
         style="letter-spacing:2.31686831px;fill:#000000;fill-opacity:1"
         d="m 346.68394,329.70641 q 0,-1.58203 1.11329,-2.69531 1.11328,-1.11328 2.71484,-1.11328 1.64062,0 2.73437,1.09375 1.11329,1.09375 1.11329,2.71484 0,1.6211 -1.13282,2.75391 -1.13281,1.13281 -2.71484,1.13281 -1.5625,0 -2.69531,-1.15234 -1.13282,-1.17188 -1.13282,-2.73438 z m 0.35157,25.87891 0,-19.72656 6.97265,0 0,19.72656 -6.97265,0 z" />
      <path
         id="path4202"
         style="letter-spacing:2.31686831px;fill:#000000;fill-opacity:1"
         d="m 381.89145,335.85876 0,10.07812 q 0,3.33984 -0.54688,4.94141 -0.52734,1.60156 -1.8164,2.89062 -1.26953,1.26953 -3.22266,1.91406 -1.95312,0.66407 -4.60937,0.66407 -2.59766,0 -4.55078,-0.64453 -1.95313,-0.64454 -3.32032,-1.95313 -1.23047,-1.17187 -1.77734,-2.8125 -0.54688,-1.66016 -0.54688,-5 l 0,-10.07812 6.64063,0 0,10.52734 q 0,2.44141 0.82031,3.57422 0.82031,1.11328 2.65625,1.11328 1.83594,0 2.65625,-1.07422 0.82031,-1.09375 0.82031,-3.61328 l 0,-10.52734 6.79688,0 z" />
      <path
         id="path4204"
         style="letter-spacing:2.31686831px;fill:#000000;fill-opacity:1"
         d="m 415.32159,355.58532 0,-10.76172 q 0,-2.53906 -0.64453,-3.51563 -0.625,-0.99609 -2.1875,-0.99609 -1.93359,0 -2.71484,1.36719 -0.76172,1.34765 -0.76172,5.54687 l 0,8.35938 -6.71875,0 0,-10.76172 q 0,-2.59766 -0.625,-3.55469 -0.625,-0.95703 -2.1875,-0.95703 -1.91406,0 -2.71484,1.34766 -0.80078,1.34765 -0.80078,5.5664 l 0,8.35938 -6.75782,0 0,-19.72656 6.83594,0 0,3.4375 q 1.23047,-2.07032 2.83203,-3.06641 1.6211,-0.99609 3.8086,-0.99609 2.40234,0 3.90625,0.91796 1.52343,0.91797 2.22656,2.79297 1.13281,-1.83593 2.79297,-2.77343 1.67968,-0.9375 3.92578,-0.9375 1.77734,0 3.10547,0.60546 1.34765,0.58594 2.24609,1.77735 0.68359,0.91797 1.01563,2.1875 0.15625,0.64453 0.23437,1.62109 0.0781,0.95703 0.0781,2.44141 l 0,0.42969 0,11.28906 -6.89454,0 z" />
    </g>
  </g>
</svg>
